<?xml version="1.0" encoding="UTF-8"?>
<svg id="Calque_2" data-name="Calque 2" xmlns="http://www.w3.org/2000/svg" viewBox="0 0 265.36 259.13">
  <defs>
    <style>
      .cls-1 {
        fill: #000;
        stroke-width: 0px;
      }
    </style>
  </defs>
  <g id="Calque_1-2" data-name="Calque 1">
    <g>
      <path class="cls-1" d="M0,259.13V0h265.36v259.13H0ZM253.86,11.92H12.45v236.06h241.41V11.92Z"/>
      <path class="cls-1" d="M66.76,182.79c3.55-11.24,6.86-21.85,10.24-32.44,7.69-24.08,15.51-48.13,23.04-72.26,1.26-4.03,3.09-5.53,7.32-5.25,5.64.37,11.33-.1,16.97.18,1.36.07,3.44,1.44,3.84,2.66,11.57,35.24,22.97,70.54,34.39,105.84.04.14-.06.32-.27,1.23-6.19,0-12.59.15-18.96-.16-1.01-.05-2.35-2.01-2.8-3.34-2.66-7.88-5.18-15.81-7.57-23.77-.82-2.73-1.94-4.04-5.14-3.94-9.15.27-18.32.24-27.47.04-2.95-.06-4.03,1.1-4.77,3.72-2.25,8-4.82,15.92-7.07,23.92-.75,2.68-1.97,3.77-4.86,3.65-5.43-.23-10.88-.07-16.87-.07ZM100.35,136.32h27.61c-4.75-15.63-9.39-30.89-14.09-46.32-4.53,15.52-9.01,30.86-13.53,46.32Z"/>
      <path class="cls-1" d="M171.23,103.71h19.53v78.7h-19.53v-78.7Z"/>
      <path class="cls-1" d="M180.84,91.84c-6.56-.03-11.19-4.55-11.06-10.81.13-6.24,4.94-10.73,11.37-10.63,6.48.1,11.03,4.61,11.06,10.96.03,6.19-4.65,10.5-11.37,10.47Z"/>
    </g>
  </g>
</svg>