<svg width="267" height="261" viewBox="0 0 267 261" fill="none" xmlns="http://www.w3.org/2000/svg">
<path d="M0.55455 260.565V0.564941H266.805V260.565H0.55455ZM255.267 12.525H13.0463V249.378H255.267V12.525Z" fill="black"/>
<path d="M172.359 104.623H191.955V183.587H172.359V104.623Z" fill="black"/>
<path d="M182.002 92.7133C175.42 92.6832 170.774 88.1481 170.905 81.867C171.035 75.6061 175.861 71.101 182.313 71.2014C188.814 71.3017 193.38 75.8268 193.41 82.1981C193.44 88.4089 188.744 92.7334 182.002 92.7033V92.7133Z" fill="black"/>
<path d="M67.5387 183.969C71.1006 172.691 74.4217 162.045 77.8131 151.42C85.5289 127.259 93.3751 103.128 100.93 78.9171C102.195 74.8736 104.031 73.3685 108.275 73.6495C113.934 74.0207 119.643 73.5492 125.302 73.8301C126.667 73.9003 128.754 75.2749 129.155 76.499C140.764 111.857 152.202 147.276 163.66 182.694C163.7 182.835 163.6 183.015 163.389 183.929C157.179 183.929 150.757 184.079 144.366 183.768C143.352 183.718 142.008 181.751 141.556 180.417C138.887 172.51 136.359 164.554 133.961 156.567C133.138 153.828 132.014 152.513 128.804 152.614C119.623 152.885 110.422 152.855 101.241 152.654C98.2816 152.594 97.1979 153.758 96.4555 156.386C94.1979 164.413 91.6193 172.36 89.3617 180.387C88.6092 183.076 87.3851 184.169 84.4854 184.049C79.0372 183.818 73.5689 183.979 67.5588 183.979L67.5387 183.969ZM101.241 137.343H128.944C124.178 121.66 119.523 106.349 114.807 90.8671C110.262 106.439 105.767 121.831 101.231 137.343H101.241Z" fill="black"/>
</svg>
