<?xml version="1.0" encoding="UTF-8"?>
<svg id="Calque_2" data-name="Calque 2" xmlns="http://www.w3.org/2000/svg" viewBox="0 0 199.82 199.81">
  <defs>
    <style>
      .cls-1 {
        fill: #000;
        stroke-width: 0px;
      }
    </style>
  </defs>
  <g id="Calque_1-2" data-name="Calque 1">
    <g>
      <path class="cls-1" d="M123.9,41.66c-4.56,8.98-3.41,16.17,3.15,20.68,6.28,4.32,13.53,2.87,19.9-3.98,15.1,14.27,24.21,47.82,6.02,75.91-18.57,28.68-57.24,37.55-85.9,19.77-29.71-18.42-39.35-56.48-21.69-86.3,18.11-30.58,54.3-37.04,78.53-26.07ZM120.9,100.13c.11-11.61-9.1-21.08-20.69-21.26-11.76-.19-21.38,9.16-21.43,20.82-.06,11.77,9.28,21.25,20.99,21.3,11.55.06,21.02-9.29,21.13-20.86ZM137.7,80.25c0-3.96-3.1-7.04-7.03-7-3.91.04-6.98,3.21-6.91,7.12.07,3.73,3.16,6.81,6.9,6.88,3.85.07,7.04-3.11,7.04-7.01Z"/>
      <path class="cls-1" d="M99.97,0c45.94.06,85.35,30.53,96.78,75.84,11.27,44.7-9.32,89.43-47.95,111.19-44.57,25.1-101.51,12.21-130.75-29.64-2.47-3.54-2.2-6.75.73-8.6,2.53-1.6,5.36-.88,7.47,2.09,6.01,8.47,13.16,15.79,21.62,21.85,44.78,32.08,108.3,16,132.38-33.53,26.53-54.57-7.39-119.34-67.46-127.66-34.08-4.72-62.28,7.08-83.97,33.97-.75.93-1.41,1.95-2.2,2.84-1.99,2.23-5.04,2.56-7.26.83-2.15-1.67-2.82-4.58-1.1-6.94,2.71-3.7,5.53-7.36,8.66-10.71C45.92,11.22,72.15-.04,99.97,0Z"/>
      <path class="cls-1" d="M97.75,17.21c29.04.82,51.14,11.43,67.9,32.78.74.94,1.43,1.93,2.09,2.93,1.92,2.94,1.55,5.91-.91,7.69-2.48,1.79-5.4,1.15-7.58-1.58-2.5-3.12-4.81-6.44-7.64-9.22-20.92-20.55-45.88-27.13-73.65-18.38-27.74,8.74-44.34,28.59-49.21,57.34-5.48,32.36,12.41,64.47,42.25,77.22,30.81,13.16,65.95,4.01,86.17-22.44.49-.64.95-1.29,1.47-1.9,2.1-2.46,5.07-2.91,7.44-1.14,2.39,1.79,3.05,4.9.82,7.4-5.24,5.87-10.22,12.19-16.35,17-41.26,32.31-101.59,18.36-124.83-28.56C1.85,88.16,30.35,29.9,83.12,19.16c5.46-1.11,11.07-1.49,14.63-1.95Z"/>
      <path class="cls-1" d="M0,99.47c-.15-11.77,2.11-23.59,6.34-35.04,1.16-3.13,3.39-4.53,6.15-4.07,2.4.41,4.31,2.56,4.27,5.06-.01.97-.33,1.96-.67,2.89-7.67,21.35-7.62,42.66.31,63.93,1.38,3.7.3,6.68-2.66,7.79-2.98,1.12-5.79-.42-7.17-4.05C2.17,124.37-.11,112.37,0,99.47Z"/>
      <path class="cls-1" d="M182.37,99.93c-.14,9.76-1.6,19.3-5.07,28.45-.57,1.5-1.59,3.49-2.85,3.91-1.72.58-4.16.43-5.78-.41-2.28-1.18-2.29-3.64-1.63-6.1,1.5-5.57,3.27-11.13,4.12-16.81,1.81-12.08.15-23.87-4.21-35.3-1.31-3.44-.12-6.28,2.86-7.44,2.77-1.08,5.46.31,6.87,3.56.2.46.36.93.54,1.4,3.48,9.27,4.99,18.88,5.14,28.74Z"/>
    </g>
  </g>
</svg>