<svg width="201" height="201" viewBox="0 0 201 201" fill="none" xmlns="http://www.w3.org/2000/svg">
<path d="M121.92 101.13C122.03 89.5095 112.811 80.0307 101.21 79.8505C89.4394 79.6603 79.8105 89.019 79.7604 100.69C79.7004 112.471 89.049 121.96 100.77 122.01C112.331 122.07 121.809 112.711 121.92 101.13Z" fill="#FF6F28"/>
<path d="M124.922 42.6062C120.358 51.5946 121.509 58.7913 128.075 63.3054C134.361 67.6295 141.618 66.1781 147.994 59.3217C163.108 73.605 172.226 107.186 154.019 135.302C135.432 164.009 96.7261 172.887 68.0395 155.091C38.3018 136.654 28.6529 98.5582 46.3293 68.7105C64.4561 38.102 100.68 31.636 124.932 42.6162L124.922 42.6062ZM121.92 101.131C122.03 89.5098 112.811 80.031 101.21 79.8508C89.4393 79.6606 79.8104 89.0193 79.7604 100.69C79.7003 112.471 89.049 121.96 100.77 122.01C112.331 122.07 121.809 112.711 121.92 101.131ZM138.735 81.2321C138.735 77.2684 135.632 74.1856 131.699 74.2256C127.785 74.2656 124.712 77.4386 124.782 81.3522C124.852 85.0857 127.945 88.1686 131.689 88.2386C135.542 88.3087 138.735 85.1257 138.735 81.2221V81.2321Z" fill="black"/>
<path d="M100.97 0.907333C146.953 0.967389 186.4 31.4657 197.84 76.8179C209.121 121.559 188.511 166.331 149.846 188.111C105.234 213.235 48.2411 200.333 18.974 158.444C16.5017 154.9 16.7719 151.687 19.7046 149.836C22.237 148.234 25.0696 148.955 27.1816 151.928C33.1972 160.406 40.3538 167.732 48.8217 173.798C93.6433 205.908 157.222 189.813 181.325 140.237C207.879 85.616 173.928 20.7858 113.802 12.4581C79.6904 7.73368 51.4641 19.5447 29.754 46.4597C29.0033 47.3905 28.3427 48.4115 27.5519 49.3023C25.5601 51.5344 22.5072 51.8647 20.2852 50.1331C18.1332 48.4615 17.4626 45.5488 19.1842 43.1866C21.8967 39.4832 24.7193 35.8198 27.8522 32.4667C46.8699 12.1378 73.1243 0.867296 100.97 0.907333Z" fill="black"/>
<path d="M98.7481 18.1328C127.815 18.9536 149.936 29.5734 166.711 50.9433C167.452 51.8842 168.143 52.8751 168.803 53.876C170.725 56.8188 170.355 59.7915 167.892 61.5732C165.41 63.3648 162.487 62.7242 160.305 59.9917C157.803 56.8688 155.491 53.5457 152.658 50.7631C131.719 30.194 106.736 23.6079 78.9397 32.366C51.1739 41.1142 34.5585 60.9826 29.6839 89.7594C24.1988 122.149 42.1055 154.289 71.9732 167.051C102.812 180.223 137.985 171.065 158.223 144.59C158.714 143.95 159.174 143.299 159.695 142.689C161.797 140.226 164.769 139.776 167.142 141.547C169.534 143.339 170.194 146.452 167.962 148.954C162.718 154.83 157.733 161.156 151.597 165.97C110.299 198.31 49.9127 184.347 26.6511 137.384C2.75892 89.1488 31.2854 30.8346 84.1045 20.0846C89.5696 18.9736 95.1848 18.5932 98.7481 18.1328Z" fill="black"/>
<path d="M0.907168 100.47C0.757029 88.6889 3.01913 76.8579 7.25307 65.3972C8.41414 62.2643 10.6462 60.863 13.4088 61.3234C15.811 61.7338 17.7228 63.8858 17.6828 66.3881C17.6727 67.359 17.3524 68.35 17.0121 69.2808C9.335 90.6507 9.38505 111.981 17.3224 133.27C18.7037 136.974 17.6227 139.957 14.6599 141.068C11.6772 142.189 8.86456 140.647 7.48328 137.014C3.07919 125.393 0.797066 113.382 0.907168 100.47Z" fill="black"/>
<path d="M183.447 100.93C183.307 110.699 181.845 120.248 178.372 129.406C177.801 130.908 176.781 132.9 175.519 133.32C173.798 133.901 171.355 133.75 169.734 132.91C167.452 131.729 167.442 129.266 168.102 126.804C169.604 121.229 171.376 115.664 172.226 109.978C174.038 97.8871 172.376 86.0861 168.012 74.6455C166.701 71.2023 167.892 68.3596 170.875 67.1986C173.648 66.1176 176.34 67.5088 177.751 70.7619C177.952 71.2223 178.112 71.6927 178.292 72.1632C181.775 81.4418 183.287 91.0607 183.437 100.93H183.447Z" fill="black"/>
</svg>
