<?xml version="1.0" encoding="UTF-8"?>
<svg id="Calque_2" data-name="Calque 2" xmlns="http://www.w3.org/2000/svg" viewBox="0 0 886.77 865.59">
  <defs>
    <style>
      .cls-1 {
        fill: #000;
        stroke-width: 0px;
      }
    </style>
  </defs>
  <g id="Calque_1-2" data-name="Calque 1">
    <g>
      <path class="cls-1" d="M443.54.13c43.32,0,86.65-.02,129.97,0,74.15.03,148.3.09,222.45.12,28.98.01,57.97.05,86.95-.12,3.88-.02,3.86,1.95,3.86,4.67-.05,21-.05,41.99-.06,62.99,0,62.49.01,124.98,0,187.46-.04,105.31-.13,210.62-.13,315.94,0,87.8.09,175.61.13,263.41,0,8.83-.12,17.66-.07,26.49.02,2.96-.58,4.49-4.15,4.48-82.48-.11-164.97-.11-247.45-.12-62.47,0-124.94.04-187.4.02-56.98-.01-113.95-.12-170.93-.11-81.31.01-162.63.11-243.94.14-8.83,0-17.68-.62-26.47-.15-5.49.3-6.3-1.98-6.27-6.56.13-20.32.01-40.65.02-60.98.01-67.15.05-134.31.06-201.46.01-96.15,0-192.3,0-288.45C.1,207.45.13,106.99,0,6.52,0,1.75.78-.03,6.18,0c46.49.24,92.98.13,139.46.13,32.49,0,64.98,0,97.48,0,66.81,0,133.61,0,200.42,0ZM42.61,826.93c7.26,0,14.2,0,21.14,0,72.99.02,145.98.06,218.98.06,126.97,0,253.93,0,380.9,0,58.99,0,117.99-.09,176.98.09,5.09.02,5.97-1.64,5.96-6.24-.12-69.49-.05-138.98-.05-208.47,0-69.66-.05-139.32-.05-208.98,0-119.15.04-238.31.05-357.46,0-1.58-.21-3.16-.33-4.84H42.61v785.83Z"/>
      <path class="cls-1" d="M621.98,608.99c-17.41,0-34.21-.05-51.02.04-3.19.02-3.35-1.85-3.48-4.19-.64-11.14-1.33-22.28-2.04-33.42-.08-1.21-.39-2.4-.71-4.32-3.43,5.2-6.12,9.89-9.4,14.12-18.8,24.24-44.03,34.53-74.23,33.35-30.89-1.21-54.36-16.1-72.01-40.62-22.33-31.01-28.57-66.53-27.33-103.79.88-26.61,6.42-52.29,19.49-75.7,22.12-39.6,60.68-62.75,107.18-54.31,20.2,3.67,37.72,12.92,48.71,31.54.23.38.71.61,1.61,1.34.27-1.4.62-2.39.62-3.38,0-46.98.05-93.96-.14-140.94-.02-4.75,1.47-5.8,5.97-5.73,16.49.27,32.99.27,49.49,0,4.39-.07,5.63,1.05,5.62,5.51-.17,58.32-.16,116.63-.14,174.95.02,50.99,0,101.98.25,152.96.08,15.65,1.01,31.3,1.53,46.96.05,1.63,0,3.26,0,5.59ZM560.72,475.64c-.45-.05-.9-.1-1.35-.15,0-5.5,0-11,0-16.5,0-12.23-.95-24.23-6.13-35.63-12.11-26.62-34.5-37.75-62.2-31.57-15.09,3.37-25.87,13.41-33.28,26.67-14.02,25.06-15.91,52.15-12.25,79.98,2.33,17.72,8.29,33.85,20.9,47.04,15.11,15.82,39.33,19.95,58.48,11.28,16.3-7.38,27.05-20.44,30.77-37.7,3.06-14.18,3.48-28.94,5.07-43.44Z"/>
      <path class="cls-1" d="M329.11,242.56v366.16h-66.06c-.1-1.71-.27-3.3-.27-4.9-.01-62.13,0-124.26-.02-186.39-.02-56.8-.09-113.61-.12-170.41,0-2.09-.56-4.49,2.96-4.48,20.96.06,41.93.03,63.5.03Z"/>
    </g>
  </g>
</svg>