<svg width="267" height="261" viewBox="0 0 267 261" fill="none" xmlns="http://www.w3.org/2000/svg">
<path d="M133.432 0.823829C146.444 0.823829 159.459 0.817822 172.472 0.823829C194.745 0.832841 217.018 0.850863 239.291 0.859875C247.996 0.862879 256.704 0.874894 265.409 0.823829C266.575 0.817822 266.569 1.40957 266.569 2.2266C266.554 8.53458 266.554 14.8396 266.551 21.1475C266.551 39.9183 266.554 58.689 266.551 77.4568C266.539 109.09 266.512 140.723 266.512 172.359C266.512 198.732 266.539 225.109 266.551 251.482C266.551 254.134 266.515 256.787 266.53 259.439C266.536 260.328 266.356 260.788 265.283 260.785C240.508 260.752 215.73 260.752 190.954 260.749C172.19 260.749 153.425 260.761 134.663 260.755C117.547 260.752 100.435 260.719 83.3192 260.722C58.8953 260.725 34.4684 260.755 10.0445 260.764C7.39215 260.764 4.73378 260.577 2.09344 260.719C0.444358 260.809 0.20105 260.124 0.210061 258.748C0.249111 252.644 0.213065 246.538 0.216069 240.431C0.219073 220.26 0.231088 200.087 0.234092 179.916C0.237095 151.035 0.234092 122.153 0.234092 93.2718C0.231088 63.0986 0.240099 32.9224 0.20105 2.74326C0.20105 1.31044 0.435346 0.775768 2.0574 0.78478C16.0221 0.856871 29.9867 0.823829 43.9484 0.823829C53.7077 0.823829 63.4671 0.823829 73.2294 0.823829C93.2978 0.823829 113.363 0.823829 133.432 0.823829ZM13.0002 249.178C15.181 249.178 17.2656 249.178 19.3503 249.178C41.275 249.184 63.1997 249.196 85.1275 249.196C123.267 249.196 161.403 249.196 199.542 249.196C217.262 249.196 234.984 249.169 252.703 249.223C254.232 249.229 254.497 248.73 254.494 247.349C254.458 226.475 254.479 205.602 254.479 184.728C254.479 163.804 254.464 142.88 254.464 121.955C254.464 86.1648 254.476 50.3715 254.479 14.5812C254.479 14.1066 254.416 13.632 254.38 13.1274H13.0002V249.175V249.178Z" fill="black"/>
<path d="M187.031 183.713C181.802 183.713 176.755 183.698 171.706 183.725C170.748 183.731 170.7 183.17 170.661 182.467C170.468 179.121 170.261 175.774 170.048 172.428C170.024 172.065 169.931 171.707 169.835 171.13C168.804 172.692 167.996 174.101 167.011 175.372C161.364 182.653 153.785 185.744 144.714 185.389C135.435 185.026 128.385 180.553 123.083 173.188C116.376 163.873 114.502 153.204 114.874 142.012C115.138 134.018 116.803 126.305 120.728 119.273C127.373 107.378 138.956 100.424 152.923 102.959C158.991 104.062 164.254 106.84 167.555 112.433C167.624 112.547 167.768 112.616 168.038 112.836C168.119 112.415 168.225 112.118 168.225 111.82C168.225 97.7085 168.24 83.5967 168.183 69.4848C168.177 68.058 168.624 67.7426 169.976 67.7637C174.929 67.8448 179.885 67.8448 184.842 67.7637C186.16 67.7426 186.533 68.0791 186.53 69.4188C186.479 86.9369 186.482 104.452 186.488 121.97C186.494 137.287 186.488 152.603 186.563 167.916C186.587 172.617 186.866 177.318 187.022 182.022C187.037 182.512 187.022 183.001 187.022 183.701L187.031 183.713ZM168.63 143.658C168.495 143.643 168.36 143.628 168.225 143.613C168.225 141.961 168.225 140.308 168.225 138.656C168.225 134.983 167.939 131.378 166.383 127.954C162.746 119.958 156.02 116.614 147.7 118.471C143.167 119.483 139.929 122.499 137.703 126.482C133.492 134.009 132.924 142.147 134.023 150.506C134.723 155.829 136.513 160.674 140.301 164.636C144.84 169.388 152.115 170.629 157.867 168.024C162.764 165.808 165.993 161.885 167.11 156.7C168.029 152.441 168.155 148.007 168.633 143.652L168.63 143.658Z" fill="black"/>
<path d="M99.0591 73.6452V183.632H79.216C79.1859 183.119 79.1349 182.641 79.1349 182.16C79.1319 163.498 79.1349 144.835 79.1289 126.173C79.1229 109.111 79.1019 92.0465 79.0928 74.9849C79.0928 74.3571 78.9246 73.6362 79.982 73.6392C86.2779 73.6572 92.5769 73.6482 99.0561 73.6482L99.0591 73.6452Z" fill="black"/>
</svg>
