<?xml version="1.0" encoding="UTF-8"?>
<svg id="Calque_2" data-name="Calque 2" xmlns="http://www.w3.org/2000/svg" viewBox="0 0 265.3 259.01">
  <defs>
    <style>
      .cls-1 {
        fill: #000;
        stroke-width: 0px;
      }
    </style>
  </defs>
  <g id="Calque_1-2" data-name="Calque 1">
    <g>
      <path class="cls-1" d="M0,259.01V0h265.3v259.01H0ZM12.67,247.36h240.88V12.3H12.67v235.06Z"/>
      <path class="cls-1" d="M89.63,182.26h-19.53c-.12-1.61-.31-3.05-.31-4.49-.02-32.99.05-65.98-.11-98.97-.02-3.86,1.12-5.14,4.91-5.5,14.28-1.35,28.57-2.86,42.75.39,16.45,3.77,25.54,14.32,26.2,29.69.74,17.2-7.63,30.4-23.82,34.94-8.33,2.33-17.35,2.21-26.06,3.17-1.13.12-2.28.02-4.02.02,0,6.97,0,13.75,0,20.52s0,13.25,0,20.24ZM89.66,125.53c5.99,0,11.33.43,16.57-.1,8.8-.89,15.03-6.67,16.74-14.69,1.93-9.04-.65-16.21-7.64-20.34-7.48-4.42-15.69-3.43-23.78-2.56-.72.08-1.79,1.86-1.8,2.86-.13,11.43-.08,22.86-.08,34.83Z"/>
      <path class="cls-1" d="M198.94,105.99c-1.31,4.76-2.5,9.05-3.72,13.47-4.33-1.21-8.38-2.85-12.57-3.36-3.51-.43-7.42-.26-10.72.89-5.62,1.95-6.44,9.37-1.62,12.9,2.37,1.74,5.26,2.8,7.95,4.08,4.5,2.15,9.33,3.75,13.48,6.42,14.76,9.5,14.06,30.94-1.48,39.16-13.57,7.18-27.68,5.75-41.52.29-1.07-.42-2.16-2.81-1.95-4.08.6-3.73,1.85-7.35,2.63-10.19,7.53,1.41,14.72,2.96,21.99,4,2.14.31,4.7-.38,6.7-1.36,5.89-2.91,6.66-9.78,1.57-13.91-2.02-1.64-4.56-2.69-6.95-3.8-4.07-1.88-8.42-3.24-12.29-5.44-7.48-4.26-12.81-10.25-12.36-19.55.5-10.12,5.58-17.35,14.92-21.18,12.09-4.95,23.97-3.52,35.95,1.67Z"/>
    </g>
  </g>
</svg>