<svg width="267" height="261" viewBox="0 0 267 261" fill="none" xmlns="http://www.w3.org/2000/svg">
<path d="M0.492981 260.505V0.504883H266.807V260.505H0.492981ZM13.2114 248.81H255.012V12.8519H13.2114V248.81Z" fill="black"/>
<path d="M200.193 106.9C198.878 111.678 197.684 115.985 196.459 120.422C192.113 119.207 188.047 117.561 183.841 117.049C180.318 116.617 176.393 116.788 173.08 117.942C167.439 119.9 166.616 127.348 171.454 130.892C173.833 132.638 176.734 133.702 179.434 134.987C183.952 137.145 188.8 138.752 192.966 141.432C207.782 150.968 207.08 172.49 191.48 180.741C177.858 187.949 163.694 186.513 149.801 181.032C148.727 180.611 147.633 178.212 147.844 176.937C148.446 173.193 149.701 169.559 150.484 166.708C158.043 168.123 165.26 169.679 172.558 170.723C174.706 171.034 177.276 170.342 179.284 169.358C185.196 166.437 185.969 159.541 180.86 155.395C178.832 153.749 176.282 152.695 173.883 151.58C169.798 149.693 165.431 148.328 161.546 146.12C154.038 141.843 148.687 135.83 149.139 126.495C149.641 116.336 154.74 109.079 164.116 105.234C176.252 100.265 188.178 101.7 200.203 106.91L200.193 106.9Z" fill="black"/>
<path d="M90.4655 183.462H70.8609C70.7404 181.846 70.5497 180.4 70.5497 178.955C70.5296 145.839 70.5999 112.723 70.4393 79.6064C70.4192 75.7317 71.5636 74.4468 75.368 74.0854C89.7026 72.7302 104.047 71.2145 118.281 74.4769C134.794 78.2613 143.919 88.8516 144.582 104.28C145.324 121.546 136.922 134.797 120.671 139.354C112.309 141.693 103.254 141.572 94.5109 142.536C93.3766 142.656 92.2222 142.556 90.4756 142.556C90.4756 149.553 90.4756 156.359 90.4756 163.155C90.4756 169.95 90.4756 176.455 90.4756 183.472L90.4655 183.462ZM90.4957 126.515C96.5086 126.515 101.869 126.947 107.129 126.415C115.963 125.521 122.216 119.719 123.933 111.668C125.87 102.594 123.28 95.3965 116.264 91.2508C108.755 86.8139 100.514 87.8076 92.3929 88.681C91.6701 88.7613 90.596 90.5481 90.586 91.5519C90.4555 103.026 90.5057 114.499 90.5057 126.515H90.4957Z" fill="black"/>
</svg>
